<mxfile host="app.diagrams.net" modified="2023-02-08T15:20:42.368Z" agent="5.0 (Windows NT 10.0; Win64; x64) AppleWebKit/537.36 (KHTML, like Gecko) Chrome/109.0.0.0 Safari/537.36" etag="J1F8BrH1NwlkOU8wQJm_" version="20.4.0" type="github">
  <diagram id="JfSlafgXA3tpt-Ji0tIN" name="第 1 页">
    <mxGraphModel dx="1422" dy="1963" grid="1" gridSize="10" guides="1" tooltips="1" connect="1" arrows="1" fold="1" page="1" pageScale="1" pageWidth="827" pageHeight="1169" math="0" shadow="0">
      <root>
        <mxCell id="0" />
        <mxCell id="1" parent="0" />
        <mxCell id="JbM6eLVSCA_AZYo8Z8cU-6" value="" style="edgeStyle=orthogonalEdgeStyle;rounded=0;orthogonalLoop=1;jettySize=auto;html=1;" edge="1" parent="1" source="JbM6eLVSCA_AZYo8Z8cU-2" target="JbM6eLVSCA_AZYo8Z8cU-5">
          <mxGeometry relative="1" as="geometry" />
        </mxCell>
        <mxCell id="JbM6eLVSCA_AZYo8Z8cU-2" value="prerouting" style="rounded=1;whiteSpace=wrap;html=1;" vertex="1" parent="1">
          <mxGeometry x="180" y="250" width="120" height="60" as="geometry" />
        </mxCell>
        <mxCell id="JbM6eLVSCA_AZYo8Z8cU-8" value="" style="edgeStyle=orthogonalEdgeStyle;rounded=0;orthogonalLoop=1;jettySize=auto;html=1;" edge="1" parent="1" source="JbM6eLVSCA_AZYo8Z8cU-5" target="JbM6eLVSCA_AZYo8Z8cU-7">
          <mxGeometry relative="1" as="geometry" />
        </mxCell>
        <mxCell id="JbM6eLVSCA_AZYo8Z8cU-10" value="" style="edgeStyle=orthogonalEdgeStyle;rounded=0;orthogonalLoop=1;jettySize=auto;html=1;" edge="1" parent="1" source="JbM6eLVSCA_AZYo8Z8cU-5" target="JbM6eLVSCA_AZYo8Z8cU-9">
          <mxGeometry relative="1" as="geometry" />
        </mxCell>
        <mxCell id="JbM6eLVSCA_AZYo8Z8cU-5" value="route" style="rhombus;whiteSpace=wrap;html=1;rounded=1;" vertex="1" parent="1">
          <mxGeometry x="400" y="240" width="80" height="80" as="geometry" />
        </mxCell>
        <mxCell id="JbM6eLVSCA_AZYo8Z8cU-17" value="" style="edgeStyle=orthogonalEdgeStyle;rounded=0;orthogonalLoop=1;jettySize=auto;html=1;" edge="1" parent="1" source="JbM6eLVSCA_AZYo8Z8cU-7" target="JbM6eLVSCA_AZYo8Z8cU-15">
          <mxGeometry relative="1" as="geometry" />
        </mxCell>
        <mxCell id="JbM6eLVSCA_AZYo8Z8cU-7" value="forward" style="whiteSpace=wrap;html=1;rounded=1;fillColor=#dae8fc;strokeColor=#6c8ebf;" vertex="1" parent="1">
          <mxGeometry x="540" y="250" width="120" height="60" as="geometry" />
        </mxCell>
        <mxCell id="JbM6eLVSCA_AZYo8Z8cU-23" value="" style="edgeStyle=orthogonalEdgeStyle;rounded=0;orthogonalLoop=1;jettySize=auto;html=1;" edge="1" parent="1" source="JbM6eLVSCA_AZYo8Z8cU-9">
          <mxGeometry relative="1" as="geometry">
            <mxPoint x="440" y="-40" as="targetPoint" />
          </mxGeometry>
        </mxCell>
        <mxCell id="JbM6eLVSCA_AZYo8Z8cU-9" value="local_in" style="whiteSpace=wrap;html=1;rounded=1;fillColor=#dae8fc;strokeColor=#6c8ebf;" vertex="1" parent="1">
          <mxGeometry x="380" y="10" width="120" height="60" as="geometry" />
        </mxCell>
        <mxCell id="JbM6eLVSCA_AZYo8Z8cU-11" value="" style="endArrow=none;html=1;rounded=0;" edge="1" parent="1">
          <mxGeometry width="50" height="50" relative="1" as="geometry">
            <mxPoint x="360" y="-40" as="sourcePoint" />
            <mxPoint x="880" y="-40" as="targetPoint" />
          </mxGeometry>
        </mxCell>
        <mxCell id="JbM6eLVSCA_AZYo8Z8cU-14" value="" style="edgeStyle=orthogonalEdgeStyle;rounded=0;orthogonalLoop=1;jettySize=auto;html=1;" edge="1" parent="1" source="JbM6eLVSCA_AZYo8Z8cU-12" target="JbM6eLVSCA_AZYo8Z8cU-13">
          <mxGeometry relative="1" as="geometry" />
        </mxCell>
        <mxCell id="JbM6eLVSCA_AZYo8Z8cU-12" value="local_out" style="whiteSpace=wrap;html=1;rounded=1;fillColor=#dae8fc;strokeColor=#6c8ebf;" vertex="1" parent="1">
          <mxGeometry x="740" y="10" width="120" height="60" as="geometry" />
        </mxCell>
        <mxCell id="JbM6eLVSCA_AZYo8Z8cU-16" value="" style="edgeStyle=orthogonalEdgeStyle;rounded=0;orthogonalLoop=1;jettySize=auto;html=1;" edge="1" parent="1" source="JbM6eLVSCA_AZYo8Z8cU-13" target="JbM6eLVSCA_AZYo8Z8cU-15">
          <mxGeometry relative="1" as="geometry" />
        </mxCell>
        <mxCell id="JbM6eLVSCA_AZYo8Z8cU-13" value="route" style="rhombus;whiteSpace=wrap;html=1;rounded=1;" vertex="1" parent="1">
          <mxGeometry x="760" y="120" width="80" height="80" as="geometry" />
        </mxCell>
        <mxCell id="JbM6eLVSCA_AZYo8Z8cU-19" value="" style="edgeStyle=orthogonalEdgeStyle;rounded=0;orthogonalLoop=1;jettySize=auto;html=1;" edge="1" parent="1" source="JbM6eLVSCA_AZYo8Z8cU-15">
          <mxGeometry relative="1" as="geometry">
            <mxPoint x="940" y="280" as="targetPoint" />
          </mxGeometry>
        </mxCell>
        <mxCell id="JbM6eLVSCA_AZYo8Z8cU-15" value="postrouting" style="whiteSpace=wrap;html=1;rounded=1;" vertex="1" parent="1">
          <mxGeometry x="740" y="250" width="120" height="60" as="geometry" />
        </mxCell>
        <mxCell id="JbM6eLVSCA_AZYo8Z8cU-21" value="" style="edgeStyle=orthogonalEdgeStyle;rounded=0;orthogonalLoop=1;jettySize=auto;html=1;" edge="1" parent="1" target="JbM6eLVSCA_AZYo8Z8cU-2">
          <mxGeometry relative="1" as="geometry">
            <mxPoint x="90" y="280" as="sourcePoint" />
          </mxGeometry>
        </mxCell>
        <mxCell id="JbM6eLVSCA_AZYo8Z8cU-24" value="" style="endArrow=none;html=1;rounded=0;" edge="1" parent="1">
          <mxGeometry width="50" height="50" relative="1" as="geometry">
            <mxPoint x="360" y="-100" as="sourcePoint" />
            <mxPoint x="880" y="-100" as="targetPoint" />
          </mxGeometry>
        </mxCell>
        <mxCell id="JbM6eLVSCA_AZYo8Z8cU-26" value="" style="edgeStyle=orthogonalEdgeStyle;rounded=0;orthogonalLoop=1;jettySize=auto;html=1;" edge="1" parent="1" target="JbM6eLVSCA_AZYo8Z8cU-12">
          <mxGeometry relative="1" as="geometry">
            <mxPoint x="800" y="-40" as="sourcePoint" />
          </mxGeometry>
        </mxCell>
        <mxCell id="JbM6eLVSCA_AZYo8Z8cU-28" value="userspace" style="text;html=1;align=center;verticalAlign=middle;resizable=0;points=[];autosize=1;strokeColor=none;fillColor=none;" vertex="1" parent="1">
          <mxGeometry x="570" y="-85" width="80" height="30" as="geometry" />
        </mxCell>
        <mxCell id="JbM6eLVSCA_AZYo8Z8cU-29" value="ip_vs_forward_icmp&lt;br&gt;ip_vs_reply4" style="text;html=1;align=center;verticalAlign=middle;resizable=0;points=[];autosize=1;strokeColor=none;fillColor=none;" vertex="1" parent="1">
          <mxGeometry x="535" y="190" width="130" height="40" as="geometry" />
        </mxCell>
        <mxCell id="JbM6eLVSCA_AZYo8Z8cU-30" value="ip_vs_reply6&lt;br&gt;ip_vs_remote_request6" style="text;html=1;align=center;verticalAlign=middle;resizable=0;points=[];autosize=1;strokeColor=none;fillColor=none;" vertex="1" parent="1">
          <mxGeometry x="220" y="20" width="150" height="40" as="geometry" />
        </mxCell>
        <mxCell id="JbM6eLVSCA_AZYo8Z8cU-31" value="ip_vs_local_reply6&lt;br&gt;ip_vs_local_request6" style="text;html=1;align=center;verticalAlign=middle;resizable=0;points=[];autosize=1;strokeColor=none;fillColor=none;" vertex="1" parent="1">
          <mxGeometry x="885" y="20" width="140" height="40" as="geometry" />
        </mxCell>
      </root>
    </mxGraphModel>
  </diagram>
</mxfile>
